<svg xmlns="http://www.w3.org/2000/svg" width="64" height="64" viewBox="0 0 64 64" fill="none">
  <defs>
    <linearGradient id="bg" x1="0" y1="0" x2="64" y2="64">
      <stop offset="0" stop-color="#F97316"/>
      <stop offset="1" stop-color="#EF4444"/>
    </linearGradient>
  </defs>
  <rect x="4" y="4" width="56" height="56" rx="16" fill="url(#bg)"/>
  <rect x="6" y="6" width="52" height="26" rx="13" fill="#FFFFFF" fill-opacity="0.16"/>
  <g fill="#FFFFFF" fill-opacity="0.96">
    <path d="M32 14c6 4 10 10 10 18s-4 14-10 18c-6-4-10-10-10-18s4-14 10-18z"/>
    <circle cx="32" cy="28" r="3" fill-opacity="0.75"/>
    <path d="M22 40l-6 6 10-2-4-4z"/>
    <path d="M42 40l6 6-10-2 4-4z"/>
    <path d="M32 52c2-2 4-4 4-6h-8c0 2 2 4 4 6z" fill-opacity="0.9"/>
  </g>
</svg>
